<svg width="92" height="100" viewBox="0 0 92 100" fill="none" xmlns="http://www.w3.org/2000/svg">
<g id="SVGRepo_iconCarrier">
<g id="Group">
<g id="Group_2">
<path id="Vector" fill-rule="evenodd" clip-rule="evenodd" d="M70.1964 67.6958C67.6256 64.8811 67.6484 62.0975 68.0759 60.5718C69.216 56.3996 70.7779 51.7603 71.6785 46.6602L43.0227 77.9646C47.5431 76.9557 51.6702 75.2993 55.3811 74.0974C56.8062 73.6366 59.5025 73.7674 62.2045 76.7191C64.9008 79.6771 78.7698 99.3988 78.7698 99.3988L91.1055 85.9292C91.1055 85.9292 72.773 70.5105 70.1964 67.6958Z" fill="white" stroke="white" stroke-width="0.008"/>
<path id="Vector_2" fill-rule="evenodd" clip-rule="evenodd" d="M70.3151 38.8274C70.2581 30.8254 67.5048 21.8084 58.3785 11.8261C45.1593 -2.60869 23.7315 -2.60869 10.518 11.8261C-2.69546 26.2608 -2.69546 49.6691 10.518 64.1101C18.9774 73.3451 26.6615 76.521 33.5875 76.9507L70.3151 38.8274ZM31.2845 56.8865C26.4791 56.8865 22.5857 52.5772 22.5857 47.2405C22.5857 41.9224 26.4848 37.6069 31.2845 37.6069C36.0957 37.6069 39.9947 41.9224 39.9947 47.2405C39.9947 52.5772 36.09 56.8865 31.2845 56.8865Z" fill="white" stroke="white" stroke-width="0.008"/>
</g>
</g>
</g>
</svg>
