<svg width="45" height="40" viewBox="0 0 45 40" fill="none" xmlns="http://www.w3.org/2000/svg">
<path d="M27.3235 12.95H23.7095C23.523 12.95 23.3441 13.0142 23.2123 13.1284C23.0804 13.2427 23.0063 13.3977 23.0063 13.5593C23.0063 13.7209 23.0804 13.8759 23.2123 13.9902C23.3441 14.1045 23.523 14.1687 23.7095 14.1687H27.3235C27.51 14.1687 27.6889 14.1045 27.8207 13.9902C27.9526 13.8759 28.0267 13.7209 28.0267 13.5593C28.0267 13.3977 27.9526 13.2427 27.8207 13.1284C27.6889 13.0142 27.51 12.95 27.3235 12.95Z" fill="#FAF2F2" fill-opacity="0.8"/>
<path d="M27.3235 16.3015H24.9048C24.7183 16.3015 24.5395 16.3657 24.4076 16.48C24.2757 16.5943 24.2017 16.7493 24.2017 16.9109C24.2017 17.0725 24.2757 17.2275 24.4076 17.3418C24.5395 17.4561 24.7183 17.5203 24.9048 17.5203H27.3235C27.51 17.5203 27.6889 17.4561 27.8207 17.3418C27.9526 17.2275 28.0267 17.0725 28.0267 16.9109C28.0267 16.7493 27.9526 16.5943 27.8207 16.48C27.6889 16.3657 27.51 16.3015 27.3235 16.3015Z" fill="#FAF2F2" fill-opacity="0.8"/>
<path d="M9.23926 10.8171H14.0627C14.2492 10.8171 14.428 10.7529 14.5599 10.6387C14.6917 10.5244 14.7658 10.3694 14.7658 10.2078C14.7658 10.0461 14.6917 9.89115 14.5599 9.77687C14.428 9.66259 14.2492 9.59839 14.0627 9.59839H9.23926C9.05278 9.59839 8.87393 9.66259 8.74207 9.77687C8.61021 9.89115 8.53613 10.0461 8.53613 10.2078C8.53613 10.3694 8.61021 10.5244 8.74207 10.6387C8.87393 10.7529 9.05278 10.8171 9.23926 10.8171Z" fill="#FAF2F2" fill-opacity="0.8"/>
<path d="M9.23926 14.1687H20.0955C20.282 14.1687 20.4608 14.1045 20.5927 13.9902C20.7246 13.8759 20.7986 13.7209 20.7986 13.5593C20.7986 13.3977 20.7246 13.2427 20.5927 13.1284C20.4608 13.0142 20.282 12.95 20.0955 12.95H9.23926C9.05278 12.95 8.87393 13.0142 8.74207 13.1284C8.61021 13.2427 8.53613 13.3977 8.53613 13.5593C8.53613 13.7209 8.61021 13.8759 8.74207 13.9902C8.87393 14.1045 9.05278 14.1687 9.23926 14.1687Z" fill="#FAF2F2" fill-opacity="0.8"/>
<path d="M22.5002 16.3015H9.23926C9.05278 16.3015 8.87393 16.3657 8.74207 16.48C8.61021 16.5943 8.53613 16.7493 8.53613 16.9109C8.53613 17.0725 8.61021 17.2275 8.74207 17.3418C8.87393 17.4561 9.05278 17.5203 9.23926 17.5203H22.5002C22.6867 17.5203 22.8655 17.4561 22.9974 17.3418C23.1292 17.2275 23.2033 17.0725 23.2033 16.9109C23.2033 16.7493 23.1292 16.5943 22.9974 16.48C22.8655 16.3657 22.6867 16.3015 22.5002 16.3015Z" fill="#FAF2F2" fill-opacity="0.8"/>
<path d="M27.3235 9.59839H16.4673C16.2808 9.59839 16.102 9.66259 15.9701 9.77687C15.8382 9.89115 15.7642 10.0461 15.7642 10.2078C15.7642 10.3694 15.8382 10.5244 15.9701 10.6387C16.102 10.7529 16.2808 10.8171 16.4673 10.8171H27.3235C27.51 10.8171 27.6889 10.7529 27.8207 10.6387C27.9526 10.5244 28.0267 10.3694 28.0267 10.2078C28.0267 10.0461 27.9526 9.89115 27.8207 9.77687C27.6889 9.66259 27.51 9.59839 27.3235 9.59839Z" fill="#FAF2F2" fill-opacity="0.8"/>
<path d="M39.375 10.7196H31.6406V6.8562C31.6406 6.69458 31.5665 6.53959 31.4347 6.42531C31.3028 6.31103 31.124 6.24683 30.9375 6.24683H5.625C5.43965 6.24995 5.26289 6.31515 5.1318 6.42876C5.00071 6.54237 4.92548 6.69556 4.92188 6.8562V20.2625C4.92188 20.4241 4.99595 20.5791 5.12782 20.6933C5.25968 20.8076 5.43852 20.8718 5.625 20.8718H9.53438L7.35469 28.0381C7.31288 28.1699 7.32343 28.3101 7.38464 28.4361C7.44585 28.5621 7.55417 28.6666 7.69219 28.7328C7.79646 28.7799 7.91211 28.8049 8.02969 28.8059C8.12703 28.805 8.22319 28.7873 8.31253 28.7539C8.40188 28.7204 8.48261 28.6718 8.55 28.6109L15.7641 21.8225V25.8443C15.7641 26.0059 15.8381 26.1609 15.97 26.2752C16.1019 26.3895 16.2807 26.4537 16.4672 26.4537H26.9859L34.0172 34.0465C34.0833 34.1177 34.1668 34.1753 34.2616 34.2154C34.3564 34.2554 34.4602 34.2768 34.5656 34.2781C34.6771 34.2768 34.7871 34.2561 34.8891 34.2171C35.0344 34.1542 35.1495 34.0487 35.2138 33.9193C35.2781 33.79 35.2876 33.6451 35.2406 33.5103L33.075 26.4537H39.375C39.5615 26.4537 39.7403 26.3895 39.8722 26.2752C40.004 26.1609 40.0781 26.0059 40.0781 25.8443V11.329C40.0781 11.1674 40.004 11.0124 39.8722 10.8981C39.7403 10.7838 39.5615 10.7196 39.375 10.7196ZM16.2 19.7018C16.1289 19.7354 16.0628 19.7763 16.0031 19.8237L9.47812 25.9175L11.1656 20.36C11.1967 20.2698 11.2027 20.1745 11.1832 20.082C11.1637 19.9894 11.1192 19.9021 11.0534 19.8273C10.9876 19.7524 10.9024 19.6921 10.8045 19.6512C10.7067 19.6104 10.5992 19.5901 10.4906 19.5921H6.32812V7.46558H30.2344V19.6531H16.4672C16.3756 19.6562 16.2853 19.6727 16.2 19.7018ZM38.7 25.235H32.1469C32.0381 25.2368 31.9312 25.2596 31.8338 25.3017C31.7365 25.3439 31.6513 25.4044 31.5844 25.4787C31.5195 25.5524 31.4745 25.6376 31.4526 25.7283C31.4307 25.819 31.4325 25.9128 31.4578 26.0028L33.0047 31.024L27.8719 25.4665C27.8057 25.3953 27.7223 25.3377 27.6275 25.2977C27.5327 25.2577 27.4289 25.2362 27.3234 25.235H17.1703V20.8718H30.9375C31.124 20.8718 31.3028 20.8076 31.4347 20.6933C31.5665 20.5791 31.6406 20.4241 31.6406 20.2625V11.9384H38.6719L38.7 25.235Z" fill="#FAF2F2" fill-opacity="0.8"/>
</svg>
