<svg width="40" height="41" viewBox="0 0 40 41" fill="none" xmlns="http://www.w3.org/2000/svg">
<g id="Exit icon">
<g id="1">
<path id="logout_account_exit_door" d="M33.75 4.11426V36.6143C33.75 36.9458 33.6184 37.2637 33.3839 37.4981C33.1495 37.7326 32.8316 37.8643 32.5 37.8643H7.50005C7.16853 37.8643 6.85058 37.7326 6.61616 37.4981C6.38174 37.2637 6.25005 36.9458 6.25005 36.6143V34.1143H8.75005V35.3643H31.25V5.36426H8.75005V9.11426H6.25005V4.11426C6.25005 3.78274 6.38174 3.46479 6.61616 3.23037C6.85058 2.99595 7.16853 2.86426 7.50005 2.86426H32.5C32.8316 2.86426 33.1495 2.99595 33.3839 3.23037C33.6184 3.46479 33.75 3.78274 33.75 4.11426ZM13.3875 25.7268L9.26255 21.6143H22.5V19.1143H9.26255L13.3875 15.0018L11.6125 13.2268L5.36255 19.4768C5.24539 19.593 5.15239 19.7312 5.08893 19.8835C5.02547 20.0359 4.9928 20.1992 4.9928 20.3643C4.9928 20.5293 5.02547 20.6927 5.08893 20.845C5.15239 20.9973 5.24539 21.1356 5.36255 21.2518L11.6125 27.5018L13.3875 25.7268Z" fill="#FAF2F2" fill-opacity="0.8"/>
</g>
</g>
</svg>
