<svg width="40" height="34" viewBox="0 0 40 34" fill="none" xmlns="http://www.w3.org/2000/svg">
<g id="Leaderboard icon">
<path id="Vector" d="M19.5765 7.49908L20 8.17408L20.4235 7.49908L24.8152 0.5H39.1432L29.2634 17.9874L29.1111 18.2568L29.2843 18.5132C30.257 19.9532 30.7773 21.5898 30.7987 23.2568C30.8202 24.9237 30.3422 26.57 29.4073 28.0285C28.4719 29.4878 27.1112 30.7088 25.4577 31.561C23.8041 32.4134 21.9207 32.8643 20 32.8643C18.0793 32.8643 16.1959 32.4134 14.5423 31.561C12.8888 30.7088 11.5281 29.4878 10.5927 28.0285C9.65784 26.57 9.1798 24.9237 9.20126 23.2568C9.22271 21.5898 9.74303 19.9532 10.7157 18.5132L10.8888 18.2568L10.7366 17.9874L0.856767 0.5H15.1848L19.5765 7.49908ZM13.6629 3.06784L13.5159 2.83333H13.2392H6.10169H5.2455L5.66622 3.57903L12.54 15.7624L12.8118 16.2441L13.2638 15.9252C14.0518 15.3692 14.9255 14.9125 15.8598 14.5693L16.0205 14.5103L16.1113 14.3651L18.2582 10.9318L18.4242 10.6664L18.258 10.4012L13.6629 3.06784ZM34.3338 3.57903L34.7545 2.83333H33.8983H26.7608H26.4846L26.3376 3.06712L20.0476 13.0671L19.5875 13.7985L20.4509 13.8329C22.7495 13.9245 24.9499 14.6596 26.7354 15.9246L27.1876 16.245L27.4599 15.7624L34.3338 3.57903ZM14.342 28.4218C15.8519 29.758 17.8879 30.5 20 30.5C22.1121 30.5 24.1481 29.758 25.658 28.4218C27.1698 27.0838 28.033 25.2551 28.033 23.3333C28.033 21.4115 27.1698 19.5828 25.658 18.2449C24.1481 16.9086 22.1121 16.1667 20 16.1667C17.8879 16.1667 15.8519 16.9086 14.342 18.2449C12.8302 19.5828 11.967 21.4115 11.967 23.3333C11.967 25.2551 12.8302 27.0838 14.342 28.4218Z" fill="#FAF2F2" fill-opacity="0.8" stroke="black"/>
</g>
</svg>
