<svg width="53" height="49" viewBox="0 0 53 49" fill="none" xmlns="http://www.w3.org/2000/svg">
<path d="M26.5 0C25.3748 0 24.4615 0.844308 24.4615 1.88462V2.20854C24.4615 3.10939 23.7754 3.91312 22.8132 4.05635C22.3464 4.12609 21.8843 4.20686 21.4277 4.30298C20.4819 4.50274 19.5254 4.00766 19.1543 3.18031L19.019 2.88584C18.5889 1.92468 17.3971 1.46668 16.3554 1.86622C15.3158 2.26388 14.8204 3.3657 15.2526 4.32874L15.388 4.63058C15.763 5.45981 15.4631 6.44149 14.6355 6.91641C14.2359 7.14633 13.8461 7.38721 13.465 7.63786C12.674 8.1599 11.5799 8.04107 10.893 7.40596L10.6461 7.17775C9.8491 6.44087 8.55863 6.44087 7.76363 7.17775C6.96863 7.91464 6.96863 9.10771 7.76363 9.84271L8.01047 10.0709C8.69743 10.706 8.82596 11.7157 8.2613 12.4488C7.99019 12.8012 7.72965 13.1616 7.48096 13.531C6.96727 14.2961 5.90351 14.5752 5.00455 14.2303L4.68207 14.1052C3.64245 13.7075 2.44671 14.1636 2.01455 15.1248C1.58444 16.0859 2.07779 17.1878 3.1174 17.5873L3.43591 17.7088C4.3308 18.0518 4.8703 18.9361 4.65422 19.8106C4.55026 20.2327 4.45892 20.6599 4.38349 21.0915C4.23061 21.9792 3.3632 22.6154 2.38881 22.6154H2.03846C0.913232 22.6154 0 23.4597 0 24.5C0 25.5403 0.913232 26.3846 2.03846 26.3846H2.38883C3.36322 26.3846 4.23256 27.019 4.38749 27.9085C4.46291 28.3401 4.55028 28.7673 4.65424 29.1895C4.87032 30.0639 4.33481 30.9483 3.43993 31.2913L3.12142 31.4164C2.0818 31.8141 1.58641 32.9159 2.01857 33.8789C2.44868 34.8401 3.64045 35.2981 4.68211 34.8985L5.00859 34.7734C5.90755 34.4285 6.96926 34.7058 7.48499 35.4691C7.73369 35.8385 7.99218 36.2006 8.26534 36.5549C8.82999 37.2862 8.70147 38.2977 8.01451 38.9328L7.76367 39.161C6.96663 39.8979 6.96663 41.091 7.76367 41.826C8.56071 42.561 9.85118 42.5628 10.6462 41.826L10.897 41.5978C11.584 40.9626 12.6741 40.8401 13.465 41.3622C13.8482 41.6147 14.24 41.8574 14.6395 42.0873C15.4651 42.5622 15.769 43.5457 15.396 44.3768L15.2606 44.675C14.8305 45.6361 15.3238 46.7416 16.3634 47.1412C17.4031 47.5388 18.5948 47.0827 19.027 46.1215L19.1584 45.8271C19.5294 44.9997 20.4859 44.5009 21.4317 44.7007C21.8883 44.7968 22.3504 44.8813 22.8172 44.951C23.7733 45.0886 24.4615 45.8906 24.4615 46.7915V47.1154C24.4615 48.1557 25.3748 49 26.5 49C27.6252 49 28.5385 48.1557 28.5385 47.1154V46.7915C28.5385 45.8906 29.2246 45.0869 30.1868 44.9437C30.6536 44.8739 31.1157 44.7932 31.5723 44.697C32.5181 44.4973 33.4746 44.9924 33.8456 45.8197L33.981 46.1142C34.4111 47.0753 35.6029 47.5333 36.6446 47.1338C37.6842 46.7361 38.1796 45.6343 37.7474 44.6713L37.612 44.3694C37.239 43.5383 37.5389 42.5567 38.3645 42.0799C38.764 41.85 39.1558 41.611 39.539 41.3585C40.3299 40.8364 41.424 40.9553 42.111 41.5904L42.3578 41.8223C43.1549 42.5592 44.4453 42.5592 45.2403 41.8223C46.0353 41.0854 46.0374 39.8923 45.2403 39.1573L44.9935 38.9254C44.3065 38.2903 44.174 37.2825 44.7387 36.5512C45.0118 36.1969 45.2743 35.8348 45.523 35.4654C46.0367 34.7021 47.1005 34.4211 47.9994 34.766L48.3219 34.8912C49.3615 35.2888 50.5573 34.8327 50.9894 33.8716C51.4195 32.9104 50.9262 31.8086 49.8866 31.409L49.5681 31.2876C48.6732 30.9446 48.1337 30.0603 48.3498 29.1858C48.4537 28.7636 48.5451 28.3364 48.6205 27.9048C48.7693 27.021 49.6368 26.3846 50.6112 26.3846H50.9615C52.0868 26.3846 53 25.5403 53 24.5C53 23.4597 52.0868 22.6154 50.9615 22.6154H50.6112C49.6368 22.6154 48.7675 21.9811 48.6125 21.0915C48.5371 20.6599 48.4497 20.2327 48.3458 19.8106C48.1297 18.9361 48.6652 18.0518 49.5601 17.7088L49.8786 17.5836C50.9182 17.186 51.4136 16.0841 50.9814 15.1211C50.5513 14.1599 49.3596 13.7019 48.3179 14.1015L47.9914 14.2266C47.0925 14.5715 46.0308 14.2942 45.515 13.5309C45.2663 13.1616 45.0078 12.7994 44.7347 12.4451C44.17 11.7139 44.2985 10.7023 44.9855 10.0672L45.2363 9.83902C46.0334 9.10213 46.0334 7.90906 45.2363 7.17406C44.4393 6.43717 43.1488 6.43717 42.3538 7.17406L42.107 7.40596C41.42 8.04107 40.326 8.16358 39.535 7.64154C39.1518 7.389 38.7601 7.14632 38.3605 6.91639C37.535 6.44147 37.235 5.458 37.6081 4.62688L37.7434 4.32874C38.1735 3.36758 37.6802 2.26209 36.6406 1.86255C35.601 1.46489 34.4092 1.92101 33.977 2.88216L33.8417 3.17663C33.4707 4.00398 32.5141 4.50276 31.5683 4.30299C31.1117 4.20688 30.6496 4.12243 30.1828 4.0527C29.2247 3.91135 28.5385 3.10941 28.5385 2.20856V1.88465C28.5385 0.844346 27.6252 0 26.5 0ZM26.5 9.42308C34.8142 9.42308 41.6633 15.1804 42.6684 22.6154H30.0235C29.2965 21.4513 27.954 20.7332 26.5 20.7308C26.4987 20.7308 26.4973 20.7308 26.496 20.7308L20.1736 10.601C22.1194 9.84284 24.2561 9.42308 26.5 9.42308ZM16.654 12.5003L22.9725 22.6154C22.6135 23.1881 22.424 23.8381 22.4231 24.5C22.4254 25.1594 22.6149 25.8067 22.9725 26.3773L16.6501 36.496C12.7331 33.7422 10.1923 29.4002 10.1923 24.5C10.1923 19.598 12.7345 15.254 16.654 12.5003ZM30.0275 26.3846H42.6684C41.6633 33.8197 34.8141 39.577 26.5 39.577C24.2561 39.577 22.1193 39.1572 20.1736 38.3991L26.496 28.2693C26.4973 28.2693 26.4986 28.2693 26.5 28.2693C27.9554 28.2682 29.2998 27.5499 30.0275 26.3846Z" fill="white" fill-opacity="0.82"/>
</svg>
