<svg width="53" height="53" viewBox="0 0 53 53" fill="none" xmlns="http://www.w3.org/2000/svg">
<g filter="url(#filter0_i_719_1219)">
<path d="M0 0H53V53H0V0Z" fill="white"/>
</g>
<path d="M14.6117 34.2C14.0784 34.2 13.6517 34.0467 13.3317 33.74C13.0117 33.42 12.8517 32.9933 12.8517 32.46C12.8517 31.9133 13.0117 31.48 13.3317 31.16C13.6517 30.8267 14.0784 30.66 14.6117 30.66C15.1584 30.66 15.5851 30.8267 15.8917 31.16C16.2117 31.48 16.3717 31.9133 16.3717 32.46C16.3717 32.9933 16.2117 33.42 15.8917 33.74C15.5851 34.0467 15.1584 34.2 14.6117 34.2ZM27.0039 34.2C26.0839 34.2 25.2839 34.02 24.6039 33.66C23.9372 33.3 23.4172 32.8 23.0439 32.16C22.6706 31.5067 22.4839 30.7467 22.4839 29.88V23.52C22.4839 22.64 22.6639 21.88 23.0239 21.24C23.3972 20.6 23.9239 20.1 24.6039 19.74C25.2839 19.38 26.0839 19.2 27.0039 19.2C27.9372 19.2 28.7372 19.38 29.4039 19.74C30.0839 20.1 30.6039 20.6 30.9639 21.24C31.3372 21.88 31.5239 22.64 31.5239 23.52V29.88C31.5239 30.7467 31.3372 31.5067 30.9639 32.16C30.5906 32.8 30.0639 33.3 29.3839 33.66C28.7172 34.02 27.9239 34.2 27.0039 34.2ZM27.0039 32.34C27.7506 32.34 28.3439 32.1133 28.7839 31.66C29.2372 31.2067 29.4639 30.6133 29.4639 29.88V23.52C29.4639 22.7867 29.2372 22.1933 28.7839 21.74C28.3439 21.2867 27.7506 21.06 27.0039 21.06C26.2572 21.06 25.6572 21.2867 25.2039 21.74C24.7639 22.1933 24.5439 22.7867 24.5439 23.52V29.88C24.5439 30.6133 24.7639 31.2067 25.2039 31.66C25.6572 32.1133 26.2572 32.34 27.0039 32.34ZM27.0039 27.94C26.6306 27.94 26.3239 27.82 26.0839 27.58C25.8572 27.34 25.7439 27.0267 25.7439 26.64C25.7439 26.2667 25.8572 25.9667 26.0839 25.74C26.3239 25.5 26.6306 25.38 27.0039 25.38C27.3772 25.38 27.6772 25.5 27.9039 25.74C28.1439 25.9667 28.2639 26.2667 28.2639 26.64C28.2639 27.0267 28.1439 27.34 27.9039 27.58C27.6772 27.82 27.3772 27.94 27.0039 27.94ZM35.1361 34V32.08H39.0161V21.28L35.1161 24.18V21.84L38.4561 19.4H41.1761V32.08H44.3161V34H35.1361Z" fill="black"/>
<defs>
<filter id="filter0_i_719_1219" x="0" y="0" width="53" height="53" filterUnits="userSpaceOnUse" color-interpolation-filters="sRGB">
<feFlood flood-opacity="0" result="BackgroundImageFix"/>
<feBlend mode="normal" in="SourceGraphic" in2="BackgroundImageFix" result="shape"/>
<feColorMatrix in="SourceAlpha" type="matrix" values="0 0 0 0 0 0 0 0 0 0 0 0 0 0 0 0 0 0 127 0" result="hardAlpha"/>
<feOffset dx="-2" dy="-2"/>
<feComposite in2="hardAlpha" operator="arithmetic" k2="-1" k3="1"/>
<feColorMatrix type="matrix" values="0 0 0 0 0.388235 0 0 0 0 0.388235 0 0 0 0 0.388235 0 0 0 0.7 0"/>
<feBlend mode="normal" in2="shape" result="effect1_innerShadow_719_1219"/>
</filter>
</defs>
</svg>
