<svg width="40" height="40" viewBox="0 0 40 40" fill="none" xmlns="http://www.w3.org/2000/svg">
<g id="Friends icon">
<path id="Vector" d="M11.25 8.75C7.12402 8.75 3.75 12.124 3.75 16.25C3.75 18.7305 4.9707 20.9375 6.83594 22.3047C3.54004 23.9404 1.25 27.3291 1.25 31.25H3.75C3.75 27.0947 7.09473 23.75 11.25 23.75C15.4053 23.75 18.75 27.0947 18.75 31.25H21.25C21.25 27.0947 24.5947 23.75 28.75 23.75C32.9053 23.75 36.25 27.0947 36.25 31.25H38.75C38.75 27.3291 36.46 23.9404 33.1641 22.3047C35.0293 20.9375 36.25 18.7305 36.25 16.25C36.25 12.124 32.876 8.75 28.75 8.75C24.624 8.75 21.25 12.124 21.25 16.25C21.25 18.7305 22.4707 20.9375 24.3359 22.3047C22.5146 23.208 20.9863 24.6338 20 26.4062C19.0137 24.6338 17.4854 23.208 15.6641 22.3047C17.5293 20.9375 18.75 18.7305 18.75 16.25C18.75 12.124 15.376 8.75 11.25 8.75ZM11.25 11.25C14.0283 11.25 16.25 13.4717 16.25 16.25C16.25 19.0283 14.0283 21.25 11.25 21.25C8.47168 21.25 6.25 19.0283 6.25 16.25C6.25 13.4717 8.47168 11.25 11.25 11.25ZM28.75 11.25C31.5283 11.25 33.75 13.4717 33.75 16.25C33.75 19.0283 31.5283 21.25 28.75 21.25C25.9717 21.25 23.75 19.0283 23.75 16.25C23.75 13.4717 25.9717 11.25 28.75 11.25Z" fill="#FAF2F2" fill-opacity="0.8"/>
</g>
</svg>
