<svg width="40" height="40" viewBox="0 0 40 40" fill="none" xmlns="http://www.w3.org/2000/svg">
<g id="Home icon">
<path id="Vector" d="M37.1337 19.7413L20.8837 3.49132C20.3949 3.00257 19.6049 3.00257 19.1162 3.49132L2.8662 19.7413C2.37745 20.2301 2.37745 21.0201 2.8662 21.5088C3.35495 21.9976 4.14495 21.9976 4.6337 21.5088L19.9999 6.14257L30.0174 16.1601C30.0162 16.1913 29.9999 16.2188 29.9999 16.2501V35.0001H9.99995V22.5001C9.99995 21.8088 9.43995 21.2501 8.74995 21.2501C8.05995 21.2501 7.49995 21.8088 7.49995 22.5001V36.2501C7.49995 36.9413 8.05995 37.5001 8.74995 37.5001H31.2499C31.9412 37.5001 32.4999 36.9413 32.4999 36.2501V18.6426L35.3662 21.5088C35.6099 21.7526 35.9299 21.8751 36.2499 21.8751C36.5699 21.8751 36.8899 21.7526 37.1337 21.5088C37.6224 21.0201 37.6224 20.2301 37.1337 19.7413Z" fill="#FAF2F2" fill-opacity="0.8"/>
</g>
</svg>
